<svg xmlns="http://www.w3.org/2000/svg"  viewBox="0 0 100 100" width="50px" height="50px"><path d="M 29.126953 15.605469 C 28.051718 15.600454 26.970063 15.604692 25.880859 15.621094 A 2.0002 2.0002 0 0 0 25.865234 15.621094 C 23.709102 15.668864 21.659299 16.573036 20.171875 18.134766 C 18.685408 19.69549 17.879825 21.78746 17.935547 23.943359 L 17.933594 23.921875 C 18.191019 40.665379 16.324622 57.994747 17.263672 74.576172 A 2.0002 2.0002 0 0 0 17.265625 74.605469 C 17.574282 78.986066 21.119616 82.483182 25.503906 82.732422 A 2.0002 2.0002 0 0 0 25.505859 82.732422 C 43.881066 83.768648 61.098009 83.94761 76.640625 82.886719 A 2.0002 2.0002 0 0 0 76.65625 82.886719 C 81.137912 82.549023 84.574665 78.665454 84.365234 74.175781 A 2.0002 2.0002 0 0 0 84.363281 74.15625 C 83.742931 63.086612 84.039765 63.442509 84.425781 59.763672 C 84.811769 56.08511 85.240194 48.904093 84.837891 23.6875 C 84.809051 21.642511 83.926562 19.6999 82.40625 18.332031 C 80.887348 16.965431 78.865715 16.292966 76.832031 16.476562 L 76.826172 16.476562 C 59.934701 17.965181 45.255481 15.680688 29.126953 15.605469 z M 29.119141 19.605469 C 41.035875 19.670036 52.43578 20.996405 64.820312 20.980469 L 64.191406 21.609375 A 1.0001 1.0001 0 1 0 65.605469 23.023438 L 67.673828 20.953125 C 68.340473 20.940509 69.01048 20.924111 69.683594 20.902344 L 68.876953 21.707031 A 1.0012745 1.0012745 0 0 0 70.292969 23.123047 L 72.642578 20.771484 C 73.959061 20.701228 75.287407 20.614689 76.632812 20.501953 L 73.292969 23.84375 A 1.0001 1.0001 0 1 0 74.707031 25.257812 L 79.099609 20.865234 C 79.323609 20.988301 79.536889 21.132471 79.730469 21.306641 C 80.249165 21.773327 80.604354 22.382684 80.755859 23.050781 L 77.3125 26.494141 A 1.0005836 1.0005836 0 1 0 78.726562 27.910156 L 80.865234 25.771484 C 80.880613 26.820442 80.891894 27.786554 80.904297 28.769531 L 79.169922 30.152344 A 1.0001 1.0001 0 1 0 80.416016 31.716797 L 80.9375 31.300781 C 80.948121 32.287057 80.955309 33.188444 80.962891 34.105469 L 79.539062 35.238281 A 1.0001 1.0001 0 1 0 80.785156 36.802734 L 80.980469 36.648438 C 81.063501 51.402101 80.736404 56.592104 80.447266 59.347656 C 80.085532 62.795069 79.746442 63.234497 80.371094 74.380859 L 80.369141 74.361328 C 80.419955 75.450666 80.063545 76.449217 79.447266 77.238281 L 77.777344 74.207031 A 1.0001 1.0001 0 0 0 76.875 73.675781 A 1.0001 1.0001 0 0 0 76.025391 75.171875 L 77.859375 78.5 C 77.399475 78.711317 76.898978 78.855209 76.361328 78.896484 C 75.888203 78.928765 75.398334 78.950503 74.921875 78.980469 L 72.392578 74.640625 A 1.0001 1.0001 0 0 0 71.478516 74.132812 A 1.0001 1.0001 0 0 0 70.666016 75.648438 L 72.681641 79.109375 C 63.6551 79.604284 54.061264 79.703605 43.996094 79.470703 L 44.892578 78.578125 A 1.0001 1.0001 0 0 0 44.171875 76.859375 A 1.0001 1.0001 0 0 0 43.482422 77.160156 L 41.230469 79.396484 C 39.761532 79.354181 38.282592 79.305597 36.794922 79.25 L 38.705078 77.351562 A 1.0001 1.0001 0 0 0 37.984375 75.632812 A 1.0001 1.0001 0 0 0 37.294922 75.933594 L 34.064453 79.144531 C 32.688839 79.086251 31.302632 79.020088 29.912109 78.951172 L 32.625 76.78125 A 1.0001 1.0001 0 0 0 31.992188 74.992188 A 1.0001 1.0001 0 0 0 31.375 75.21875 L 26.900391 78.796875 C 26.508904 78.775532 26.125018 78.76042 25.732422 78.738281 L 25.730469 78.738281 C 24.377492 78.660826 23.199576 78.020312 22.384766 77.058594 L 26.783203 75.078125 A 1.0001 1.0001 0 0 0 26.417969 73.162109 A 1.0001 1.0001 0 0 0 25.962891 73.255859 L 21.433594 75.294922 C 21.346044 74.984627 21.281784 74.664111 21.257812 74.330078 C 21.181327 72.975852 21.13221 71.610173 21.091797 70.240234 L 26.568359 69.152344 A 1.0001 1.0001 0 0 0 26.345703 67.169922 A 1.0001 1.0001 0 0 0 26.177734 67.189453 L 21.037109 68.210938 C 21.013574 66.901647 21.022036 65.577172 21.023438 64.255859 A 1.000202 1.000202 0 0 0 21.039062 64.253906 L 25.587891 63.486328 A 1.0001 1.0001 0 0 0 25.423828 61.498047 A 1.0001 1.0001 0 0 0 25.255859 61.515625 L 21.015625 62.228516 C 21.026858 61.012494 21.059898 59.78492 21.085938 58.560547 L 23.478516 58.423828 A 1.0001 1.0001 0 0 0 23.433594 56.425781 A 1.0001 1.0001 0 0 0 23.363281 56.427734 L 21.125 56.556641 C 21.152628 55.512612 21.186443 54.462968 21.220703 53.414062 L 23.302734 53.294922 A 1.0001 1.0001 0 0 0 23.257812 51.296875 A 1.0001 1.0001 0 0 0 23.1875 51.298828 L 21.287109 51.408203 C 21.609616 42.305564 22.07496 33.054163 21.933594 23.859375 A 2.0002 2.0002 0 0 0 21.933594 23.839844 C 21.905314 22.745743 22.312826 21.687807 23.068359 20.894531 C 23.822488 20.10273 24.859972 19.643874 25.953125 19.619141 C 27.013467 19.603275 28.067958 19.599773 29.119141 19.605469 z M 25.601562 27.177734 A 1 1 0 0 0 25.601562 29.177734 A 1 1 0 0 0 25.601562 27.177734 z M 33.792969 27.177734 A 1 1 0 0 0 33.792969 29.177734 A 1 1 0 0 0 33.792969 27.177734 z M 41.548828 28.648438 A 2.0002 2.0002 0 0 0 39.816406 29.726562 L 35.351562 38.039062 A 2.0002 2.0002 0 0 0 36.71875 40.945312 L 46.263672 42.865234 A 2.0002326 2.0002326 0 0 0 47.052734 38.943359 L 42.392578 38.005859 C 44.602702 36.750798 46.861057 35.996875 48.863281 35.617188 C 51.35592 35.1445 53.521643 35.297775 54.320312 35.529297 C 56.969107 36.297848 63.998286 38.15554 65.808594 46.804688 A 2.0005054 2.0005054 0 1 0 69.724609 45.984375 C 67.494917 35.331522 58.066753 32.450948 55.435547 31.6875 C 54.515382 31.42076 53.432936 31.279573 52.207031 31.275391 C 50.981126 31.271191 49.610368 31.404343 48.117188 31.6875 C 46.291727 32.033668 44.306627 32.629822 42.302734 33.552734 L 43.341797 31.619141 A 2.0002 2.0002 0 0 0 41.548828 28.648438 z M 30.601562 31.580078 A 1 1 0 0 0 30.601562 33.580078 A 1 1 0 0 0 30.601562 31.580078 z M 34.068359 49.529297 A 2.0002 2.0002 0 0 0 32.158203 51.966797 C 34.387896 62.619649 43.81606 65.500223 46.447266 66.263672 C 48.287596 66.797151 50.779264 66.829985 53.765625 66.263672 C 55.591585 65.917409 57.577579 65.321783 59.582031 64.398438 L 58.542969 66.332031 A 2.0002 2.0002 0 1 0 62.066406 68.224609 L 66.53125 59.912109 A 2.0002 2.0002 0 0 0 65.164062 57.005859 L 55.619141 55.085938 A 2.0002 2.0002 0 0 0 55.220703 55.041016 A 2.0002 2.0002 0 0 0 54.830078 59.005859 L 59.492188 59.943359 C 57.281327 61.199214 55.022454 61.954164 53.019531 62.333984 C 50.526892 62.806671 48.36117 62.653396 47.5625 62.421875 C 44.913706 61.653323 37.884526 59.795632 36.074219 51.146484 A 2.0002 2.0002 0 0 0 34.068359 49.529297 z"/></svg>